<?xml version="1.0" encoding="UTF-8"?>
<svg id="Calque_1" data-name="Calque 1" xmlns="http://www.w3.org/2000/svg" viewBox="0 0 75.38 78.31">
  <path d="m72.25,28.94c0,.59.06,1.18-.01,1.76-.11.9-.18,1.83-.68,2.63-.19.31-.36.64-.59.93-.36.44-.95.46-1.39.08-.47-.41-.74-.93-.92-1.52-.25-.79-.42-1.59-.37-2.42.04-.67,0-1.34.08-2,.12-.94.39-1.86.92-2.66.44-.65,1.56-.93,2.24.27.49.88.72,2.09.72,2.93Z" style="stroke-width: 0px;"/>
  <path d="m12.79,20c.5.04,1.01.05,1.51.06.32,0,.63-.05.95-.05.46,0,.92.03,1.37.02h.29c.39-.03.77-.07,1.16-.09.38-.02.76,0,1.14-.02.02,0,.04,0,.07,0l16.96-.69,19.1-3.88c.4-.1.78-.24,1.17-.38.2-.07.17-.22.05-.34-.07-.07-.17-.1-.26-.13-.24-.06-.49-.11-.73-.17-.6-.13-1.19-.29-1.8-.39-.34-.06-.68-.23-1.04-.1-.22-.22-.51-.13-.76-.19-.13-.03-.26-.08-.39-.1-.47-.08-.94-.15-1.41-.22-.93-.13-1.86-.26-2.79-.39-.59-.08-1.19-.14-1.78-.24-.23-.04-.4-.18-.47-.44-.07-.25-.19-.48-.28-.73-.18-.47-.37-.95-.54-1.42-.26-.71-.49-1.43-.75-2.15-.2-.56-.43-1.11-.63-1.67-.29-.78-.55-1.56-.84-2.33-.21-.57-.47-1.11-.68-1.68-.22-.61-.5-1.18-.9-1.69-.27-.34-.61-.6-1.06-.59-.36.01-.75.04-1.07.19-.65.3-1.28.67-1.9,1.03-.6.35-1.2.69-1.77,1.08-.55.37-1.12.39-1.73.26-.45-.1-.9-.23-1.35-.34-.74-.17-1.48-.35-2.23-.51-.59-.13-1.19-.24-1.79-.34-.77-.13-1.32.17-1.69.86-.41.74-.56,1.56-.79,2.35-.28.99-.5,1.99-.74,2.99-.17.72-.35,1.44-.51,2.17-.12.54-.21,1.09-.34,1.64-.15.64-.33,1.28-.5,1.92-.14.54-.28,1.09-.44,1.63-.04.13-.17.26-.29.33-.17.1-.36.15-.55.23-.66.26-1.33.52-1.98.8-.49.2-.98.44-1.47.64-.81.33-1.63.63-2.43.97-.82.35-1.63.72-2.43,1.11-.29.14-.57.33-.81.54-.21.19-.12.44.17.46Z" style="stroke-width: 0px;"/>
  <path d="m75.23,27.99c-.15-1.14-.28-2.29-.59-3.39-.27-.96-.64-1.92-1.28-2.74-.58-.73-1.17-1.46-2.13-1.59-.91-.13-1.85-.06-2.78-.11-.17,0-.43-.14-.48-.27-.27-.77-.48-1.56-.72-2.33-.13-.4-.25-.81-.44-1.19-.23-.45-.7-.48-1.14-.51-.65-.03-1.32-.07-1.79.53-.48.62-.95,1.25-1.44,1.86-.45.55-.9,1.1-1.39,1.62-.14.15-.4.27-.6.28-1.89.02-3.77,0-5.66.01-1.55,0-3.11.03-4.66.04-.49,0-.99.04-1.48.03-1.23,0-2.46-.04-3.69-.03-1.04,0-2.07.08-3.11.1-1.74.03-3.48.04-5.22.08-2.23.05-4.46.13-6.69.17-1.7.03-3.41.01-5.11.02-1.08,0-2.16,0-3.24.03-1.45.03-2.91.1-4.36.13-.9.02-1.81,0-2.71,0-.57,0-1.14,0-1.71,0-.79,0-1.58-.01-2.36,0-.26,0-.37-.09-.38-.36-.01-.51-.04-1.01-.09-1.52-.04-.48-.2-.64-.7-.68-.33-.02-.67-.01-1,0-.72.02-1.45.03-2.17.08-.15.01-.37.12-.42.24-.1.25-.1.53-.13.8-.07.48-.13.95-.2,1.45-.6,0-1.19,0-1.78,0-.89,0-1.71.83-1.76,1.76-.04.96-.1,1.92-.19,2.88-.14,1.4-.31,2.8-.48,4.21-.11.92-.23,1.83-.33,2.74-.12,1.08-.23,2.15-.32,3.23-.07.8.06,1.54.8,2.03.51.34,1.11.25,1.67.32.62.08,1.24-.06,1.86.21,1.82.79,3.07,2.11,3.85,3.92.22.52.26,1.04.27,1.59.03.98-.06,1.94-.38,2.87-.24.72-.51,1.43-.79,2.14-.49,1.25-.99,2.49-1.5,3.73-.27.65-.55,1.3-.84,1.95-.38.86-.76,1.71-1.13,2.57-.29.67-.58,1.35-.84,2.03-.34.93-.65,1.86-.96,2.8-.49,1.53-1,3.06-1.45,4.61-.29,1.03-.52,2.08-.72,3.13-.17.89-.3,1.79-.36,2.69-.05.7.04,1.41.07,2.12.05,1.2.55,2.2,1.46,2.96.8.67,1.74.96,2.82.91,1.18-.05,2.36.04,3.55.06,1.75.03,3.5.06,5.25.07,1.58.01,3.16,0,4.74,0,1.15,0,2.3.03,3.45.03,1.17,0,2.34.01,3.51-.03.51-.02,1.05.08,1.51-.3.82-.69,1.08-1.96.41-2.9-.27-.38-.56-.75-.79-1.15-.23-.39-.52-.79-.58-1.22-.09-.66-.04-1.35.02-2.02.07-.72.2-1.43.33-2.13.13-.67.29-1.34.45-2.01.12-.51.26-1.01.37-1.52.33-1.48.62-2.97.99-4.44.21-.83.46-1.66.83-2.43.32-.68.89-1.16,1.69-1.37.85-.22,1.51.19,2.17.52,1.18.6,2.43.99,3.72,1.1,1.38.11,2.76.07,4.15.07,1.37,0,2.75,0,4.12-.04.93-.03,1.84-.24,2.65-.68.67-.37,1.27-.87,1.87-1.35,1.02-.82,1.75-1.85,2.19-3.09.16-.46.29-.94.39-1.43.22-1.07.39-2.14.62-3.2.2-.95.4-1.9.69-2.82.24-.78,1.03-1.2,1.8-1.19,1.66,0,3.31,0,4.97,0,1.62,0,3.24,0,4.87,0,1.53,0,3.06,0,4.59-.03.43,0,.89-.06,1.28-.23,1.36-.6,1.86-1.77,1.92-3.16.04-.92.03-1.84-.01-2.76-.02-.35.14-.5.38-.66.83-.56,1.41-1.33,1.83-2.21.44-.92.75-1.91.86-2.94.08-.78.23-1.55.25-2.32.02-.79-.05-1.59-.15-2.38Zm-27.24,21.39c-.16,1.03-.51,2.01-.95,2.96-.47,1.04-1.21,1.78-2.3,2.19-1.4.53-2.85.53-4.31.56-.17,0-.33,0-.5,0,0,.01,0,.03,0,.04-1.64-.08-3.27-.14-4.9-.25-1.04-.07-1.98-.46-2.75-1.18-.61-.57-1.16-1.21-1.72-1.83-.75-.82-.82-1.81-.68-2.84.14-1.07.31-2.15.49-3.22.02-.12.22-.3.34-.31.74-.03,1.49-.03,2.24-.02.09,0,.24.15.27.26.28,1.14.47,2.3.82,3.41.7,2.22,2.16,3.68,4.48,4.23.93.22,1.84.29,2.77,0,.63-.2.94-.49.89-.95-.02-.16-.15-.37-.28-.44-1.84-.92-2.81-2.45-3.1-4.42-.09-.64-.06-1.3-.01-1.95.04-.59.54-.96,1.18-.96,1.84,0,3.69,0,5.53.01.38,0,.79-.02,1.14.1.61.2.95.68,1.25,1.27.56,1.11.28,2.21.11,3.31Zm25.22-20.25c-.01,1.01-.02,2.03-.11,3.04-.08.88-.31,1.71-.83,2.47-.34.5-.75.85-1.29,1.07-.93.37-1.96.05-2.54-.82-.87-1.27-1.16-2.72-1.17-4.23,0-.84-.04-1.68,0-2.52.1-1.53.55-2.95,1.75-3.97.89-.76,2.04-.69,2.82.41.63.88,1.04,1.84,1.26,2.88.12.54.1,1.11.09,1.67Z" style="stroke-width: 0px;"/>
  <path d="m38.11,31.38c-.16.45-.6,1.47-1.64,2.26-1.28.96-2.87,1.14-4.14.81-1.97-.51-3.49-2.3-3.82-4.53l4.71.72c-.08.06-.22.2-.25.4-.04.26.12.47.28.68.14.18.43.55.97.71.16.05.59.17,1.06,0,.43-.16.68-.48.91-.78.15-.2.26-.38.32-.51l1.61.22Z" style="fill: #fff; stroke-width: 0px;"/>
  <path d="m49.51,29.89c-.03.41-.11.99-.35,1.64-.15.41-.34.96-.79,1.51-.22.27-.95,1.13-2.22,1.38-.43.08-1.32.18-2.24-.27-.6-.29-.95-.7-1.26-1.04-.14-.16-.03-.05-.6-.97-.04-.07-.13-.2-.09-.35.03-.13.14-.2.2-.24l1.19-.22c.06.14.18.36.37.58.18.21.47.54.94.62.54.1.97-.18,1.07-.25.46-.31.6-.78.67-.99.09-.3.09-.56.09-.72l3.01-.67Z" style="fill: #fff; stroke-width: 0px;"/>
</svg>