<?xml version="1.0" encoding="UTF-8"?>
<svg id="Calque_1" data-name="Calque 1" xmlns="http://www.w3.org/2000/svg" viewBox="0 0 75.55 68.57">
  <path d="m38.2,26.51c-.16.45-.6,1.47-1.64,2.26-1.28.96-2.87,1.14-4.14.81-1.97-.51-3.49-2.3-3.82-4.53l4.71.72c-.08.06-.22.2-.25.4-.04.26.12.47.28.68.14.18.43.55.97.71.16.05.59.17,1.06,0,.43-.16.68-.48.91-.78.15-.2.26-.38.32-.51l1.61.22v.02Z" style="fill: #fff; stroke-width: 0px;"/>
  <path d="m49.6,25.02c-.03.41-.11.99-.35,1.64-.15.41-.34.96-.79,1.51-.22.27-.95,1.13-2.22,1.38-.43.08-1.32.18-2.24-.27-.6-.29-.95-.7-1.26-1.04-.14-.16-.03-.05-.6-.97-.04-.07-.13-.2-.09-.35.03-.13.14-.2.2-.24l1.19-.22c.06.14.18.36.37.58.18.21.47.54.94.62.54.1.97-.18,1.07-.25.46-.31.6-.78.67-.99.09-.3.09-.56.09-.72l3.01-.67h.01Z" style="fill: #fff; stroke-width: 0px;"/>
  <path d="m45.82,40.11c1-.22,1.99-.47,2.99-.67,1.12-.22,2.25-.4,3.37-.62,1.64-.32,3.28-.66,4.92-.98,1.68-.33,3.37-.62,5.06-.95,1.5-.3,2.99-.62,4.49-.94,1.61-.34,3.23-.65,4.83-1.03,1-.24,1.98-.58,2.81-1.23,1.07-.85,1.25-2.08,1.26-3.32.02-1.69-.07-3.38-.09-5.06-.01-.98.04-1.97.04-2.95,0-1.07-.02-2.14-.05-3.21-.03-1.18,0-2.37-.12-3.54-.16-1.42-.98-2.52-2.15-3.3-.86-.57-1.86-.78-2.89-.77-1.61.01-3.22.02-4.83.01-1.17,0-2.33-.01-3.5-.02-3.13,0-6.26-.01-9.38,0-.27,0-.36-.11-.38-.35-.01-.23-.04-.45-.05-.68-.04-1.19-.04-2.37-.12-3.56-.07-1.15-.29-2.28-.89-3.29C49.72,1.29,47.57.1,44.83.02c-1.71-.05-3.42,0-5.13,0-1.76,0-3.53,0-5.29.03-1.59.02-3.19,0-4.77.12-1.49.11-2.85.61-4.04,1.59-1.51,1.24-2.28,2.83-2.46,4.74-.09.93-.14,1.86-.18,2.79-.03.74,0,1.48,0,2.3-.48,0-.91,0-1.35,0-2.19-.02-4.38-.06-6.57-.07-3.22,0-6.43.03-9.65.01-1.37,0-2.62.29-3.64,1.24-.77.72-1.41,1.56-1.55,2.66-.08.61-.12,1.22-.13,1.83-.03,1.2-.05,2.39-.04,3.59,0,1.61.05,3.21.05,4.82,0,1.76-.08,3.53-.05,5.29.03,1.71,1.16,3.06,2.71,3.53.91.28,1.83.51,2.75.73,1.4.33,2.81.65,4.22.94,1.92.39,3.84.75,5.76,1.13,1.1.22,2.21.44,3.31.65,1.44.28,2.89.55,4.33.82,1.11.21,2.21.42,3.32.64,1.24.25,2.49.5,3.73.77.06.01.16.1.16.15.01.42,0,.84,0,1.27-1.03-.17-2.02-.32-3-.5-1.75-.33-3.49-.7-5.24-1.04-1.63-.31-3.26-.6-4.89-.91-1.84-.35-3.67-.7-5.51-1.07-1.7-.34-3.39-.67-5.08-1.04-1.29-.28-2.59-.56-3.86-.94-.77-.23-1.47-.66-2.2-1-.02.32-.06.7-.06,1.08,0,1.99,0,3.99,0,5.98,0,1.94-.02,3.89-.03,5.83,0,2.71,0,5.43,0,8.14,0,2.27-.02,4.54.01,6.81,0,.59.1,1.2.25,1.77.35,1.34,1.22,2.32,2.35,3.05.45.29.98.54,1.5.62.84.13,1.7.14,2.56.14,2.99,0,5.98-.02,8.96-.03,1.93,0,3.87.01,5.8.01,2.34,0,4.67,0,7.01-.01,1.53,0,3.06,0,4.59,0,1.2,0,2.4-.02,3.6,0,1.08,0,2.17.06,3.25.06,1.33,0,2.66-.05,4-.05,1.43,0,2.87.04,4.3.05.62,0,1.25-.06,1.87-.06.92,0,1.84.04,2.76.05.71,0,1.43-.03,2.14-.03.92,0,1.83.05,2.75.04.84,0,1.69-.05,2.53-.05,1.3,0,2.6.03,3.9.03.77,0,1.55-.03,2.32-.04,1.14-.02,2.29-.03,3.43-.05,1.61-.02,2.83-.79,3.78-2.03.77-1.01,1.1-2.15,1.09-3.42-.02-3.03,0-6.06,0-9.09,0-1.53,0-3.05,0-4.58-.01-1.52-.06-3.05-.07-4.57-.02-1.9-.02-3.8-.02-5.7,0-.65.01-1.3.01-1.95,0-.66,0-1.33,0-2.1-.3.18-.5.31-.71.43-1.45.78-3.06,1.03-4.64,1.39-1.81.42-3.64.74-5.47,1.11-1.4.28-2.81.56-4.21.83-1.77.35-3.55.69-5.32,1.03-.94.18-1.87.37-2.8.55-1.44.28-2.89.55-4.33.82-.76.14-1.51.29-2.32.45.05-.56.09-1.02.13-1.5.16-.02.29-.02.41-.04ZM28.08,7.71c.21-1.04.77-1.75,1.7-2.12.63-.25,1.33-.37,2-.41,1.46-.08,2.92-.07,4.38-.08.83,0,1.66.04,2.48.04,1.63,0,3.26-.03,4.9-.05,2.04-.03,3.28,1.18,3.43,3.19.07.98.06,1.95-.02,2.93,0,.1-.02.2-.04.29h-18.86c-.03-1.32-.23-2.54.02-3.79Zm-.79,24.34c-1.25.04-2.48-.19-3.64-.68-2-.83-3.49-2.25-4.46-4.16-.43-.85-.63-1.82-.89-2.75-.19-.69-.3-1.4-.44-2.1-.01-.05,0-.11,0-.21,2.34.75,4.66,1.5,6.95,2.24,0,.6-.08,1.15.01,1.68.36,1.95,2.08,3.54,4.32,2.83,1.03-.33,1.65-1.15,2.1-2.08.17-.36.28-.48.7-.3.73.3,1.5.5,2.27.71.3.08.33.21.22.46-.57,1.34-1.46,2.39-2.73,3.12-1.37.79-2.85,1.19-4.42,1.24Zm15.1,16.93c-.18,1.99-1.32,3.34-3.28,3.74-1.16.23-2.36.26-3.47-.11-1.34-.45-2.36-1.33-2.58-2.85-.07-.48-.18-.96-.2-1.44-.02-.55.06-1.11.07-1.66.01-.69,0-1.39,0-2.12.41.03.77.03,1.12.09.08.01.17.23.18.36,0,1.15-.05,2.3,0,3.44.07,1.22.5,2.31,1.75,2.76.59.21,1.26.2,1.9.24.35.02.71-.04,1.06-.1,1.16-.18,1.74-1,1.93-2.03.18-.96.17-1.97.22-2.95.03-.56,0-1.12,0-1.73.41-.03.8-.06,1.29-.1,0,.64,0,1.25,0,1.85,0,.87.06,1.75-.01,2.62Zm-3.88-1.88c.03.76.03,1.53.07,2.29.02.34-.13.45-.43.44-.29,0-.58,0-.88,0-.48,0-.59-.13-.57-.6.03-.74.07-1.47.08-2.21,0-.2-.05-.39-.08-.58-.99-.03-.94-.55-.87-1.76h3.74c-.05.45-.07.89-.16,1.31-.04.16-.24.38-.39.4-.46.06-.51.33-.5.7Zm5.36-5.21c-.04.44-.12.88-.18,1.37-.81.04-1.59.08-2.38.11-1.19.03-2.38.06-3.57.06-1.12,0-2.24-.02-3.36-.04-.58,0-1.16-.02-1.74-.03-.68-.02-.77-.13-.76-.8,0-.23-.06-.46-.11-.68-.06-.31.08-.46.38-.44,1.1.07,2.2.13,3.29.18.99.04,1.99.08,2.98.07,1.04-.01,2.07-.09,3.11-.14.66-.03,1.32-.07,1.98-.12.35-.02.38.23.36.46Zm.06-11.09c-1.43-.8-2.35-1.95-3.03-3.46,1.07-.36,2.1-.7,3.17-1.06.06.22.09.45.18.66.34.82.94,1.43,1.7,1.87.58.33,1.24.28,1.87.17,1.22-.22,1.88-1.09,2.37-2.14.36-.78.34-1.59.21-2.45,2.35-.76,4.7-1.52,7.09-2.29-.04,1.68-.4,3.25-1.08,4.73-.9,1.95-2.31,3.5-4.3,4.37-.94.41-1.99.61-3.02.73-1.83.22-3.52-.21-5.15-1.13Z" style="fill: #fff; stroke-width: 0px;"/>
</svg>