<?xml version="1.0" encoding="utf-8"?>
<!-- Generator: Adobe Illustrator 27.3.1, SVG Export Plug-In . SVG Version: 6.00 Build 0)  -->
<svg version="1.1" id="Calque_1" xmlns="http://www.w3.org/2000/svg" xmlns:xlink="http://www.w3.org/1999/xlink" x="0px" y="0px"
	 viewBox="0 0 1000 1000" style="enable-background:new 0 0 1000 1000;" xml:space="preserve">
<style type="text/css">
	.st0{fill:#FF6053;}
</style>
<circle class="st0" cx="500" cy="500" r="468.26"/>
<path d="M292.99,271.88c1.05-0.82,2.56-0.71,3.47,0.26c22.12,23.32,44.23,46.64,66.35,69.96l0,0l1.92,2.03
	c0.02,0.02,0.04,0.04,0.06,0.06l0,0l138.13,146.17c0.72,0.76,1.91,0.81,2.68,0.11l1.02-0.92c0.74-0.67,0.84-1.79,0.24-2.58
	L386.82,328.24l0,0c-2.7-3.58-5.4-7.17-8.11-10.75c1.11-0.78,2.23-1.56,3.34-2.34c3.41,3.31,6.83,6.62,10.24,9.92l0,0l42.56,41.53
	c0.62,0.6,1.57,0.72,2.31,0.28l36.03-21.1c0.96-0.56,1.24-1.83,0.61-2.75l-32.07-46.51l0.01,0
	c-27.11-39.45-54.23-78.89-81.34-118.34c-0.66-0.97-0.44-2.29,0.5-2.98c0.87-0.65,2.09-0.55,2.85,0.23
	c34.69,35.35,69.37,70.7,104.06,106.04l0.01,0l2.61,2.67c0.02,0.02,0.04,0.04,0.05,0.05l0,0l85.06,86.93
	c0.67,0.68,1.74,0.77,2.51,0.2l1.29-0.95c0.89-0.65,1.04-1.91,0.35-2.76l-38.04-46.39c-0.74-0.91-0.51-2.26,0.5-2.87l13.56-8.12
	c0.99-0.59,1.24-1.91,0.54-2.82l-32.36-42.1c-10.97-14.14-21.93-28.28-32.9-42.42c-0.75-0.97-0.51-2.38,0.53-3.03
	c0.81-0.52,1.87-0.41,2.57,0.26c12.46,12.05,24.92,24.1,37.38,36.15l0.01-0.01l43,41.92c0.62,0.61,1.58,0.72,2.33,0.27l28.56-17.09
	c0.98-0.59,1.24-1.9,0.54-2.81l-34.5-45.35l0,0c-23.98-31.58-47.96-63.15-71.93-94.73c-0.77-1.01-0.53-2.46,0.51-3.18l0,0
	c0.9-0.61,2.1-0.49,2.86,0.29c28.5,29.58,57,59.16,85.5,88.74c0,0,0,0,0.01,0l2.46,2.57c0.01,0.01,0.03,0.03,0.04,0.04l0,0
	l120.18,125.12c0.68,0.7,1.78,0.79,2.55,0.2l0.27-0.21c0.83-0.63,1-1.82,0.38-2.66c-32.43-44.35-64.87-88.69-97.3-133.04
	c23.52-3.24,47.42,1.21,68.09,12.37c0.14,0.07,0.28,0.14,0.41,0.21c0.81,0.44,1.6,0.92,2.4,1.38c0.8,0.46,1.61,0.91,2.39,1.39
	c0.13,0.08,0.26,0.17,0.39,0.25c31.75,19.55,52.92,54.62,52.92,94.64l0,366.35c0,61.35-49.73,111.08-111.08,111.08l0,0
	c-61.35,0-111.08-49.73-111.08-111.08l0-174.31L350.41,605.8c-53.13,30.67-121.07,12.47-151.74-40.66l0,0
	c-30.67-53.13-12.47-121.07,40.66-151.74l75.64-43.67l36.69,44.69c0.6,0.73,1.63,0.91,2.44,0.44l30.61-17.67
	c1.01-0.58,1.27-1.93,0.55-2.85l-35.1-44.94l0,0c-19.21-24.63-38.42-49.26-57.63-73.89C291.67,274.39,291.87,272.77,292.99,271.88z"
	/>
</svg>
