<?xml version="1.0" encoding="UTF-8"?>
<!-- BIMI-ready SVG: no <style>, inline fills, square viewBox, Tiny-PS -->
<svg xmlns="http://www.w3.org/2000/svg"
     version="1.2" baseProfile="tiny-ps"
     viewBox="0 0 1000 1000" width="1000" height="1000"
     role="img" aria-label="Cartel">
  <title>Cartel</title>
  <circle cx="500" cy="500" r="468.26" fill="#FF6053"/>
  <path fill="#000" d="M712.97,271.88c-1.05-0.82-2.56-0.71-3.47,0.26c-22.12,23.32-44.23,46.64-66.35,69.96l0,0l-1.92,2.03
    c-0.02,0.02-0.04,0.04-0.06,0.06l0,0L503.04,490.36c-0.72,0.76-1.91,0.81-2.68,0.11l-1.02-0.92c-0.74-0.67-0.84-1.79-0.24-2.58
    l120.05-158.73l0,0c2.7-3.58,5.4-7.17,8.11-10.75c-1.11-0.78-2.23-1.56-3.34-2.34c-3.41,3.31-6.83,6.62-10.24,9.92l0,0
    l-42.56,41.53c-0.62,0.6-1.57,0.72-2.31,0.28l-36.03-21.1c-0.96-0.56-1.24-1.83-0.61-2.75l32.07-46.51l-0.01,0
    c27.11-39.45,54.23-78.89,81.34-118.34c0.66-0.97,0.44-2.29-0.5-2.98c-0.87-0.65-2.09-0.55-2.85,0.23
    c-34.69,35.35-69.37,70.7-104.06,106.04l-0.01,0l-2.61,2.67c-0.02,0.02-0.04,0.04-0.05,0.05l0,0l-85.06,86.93
    c-0.67,0.68-1.74,0.77-2.51,0.2l-1.29-0.95c-0.89-0.65-1.04-1.91-0.35-2.76l38.04-46.39c0.74-0.91,0.51-2.26-0.5-2.87l-13.56-8.12
    c-0.99-0.59-1.24-1.91-0.54-2.82l32.36-42.1c10.97-14.14,21.93-28.28,32.9-42.42c0.75-0.97,0.51-2.38-0.53-3.03
    c-0.81-0.52-1.87-0.41-2.57,0.26c-12.46,12.05-24.92,24.1-37.38,36.15l-0.01-0.01l-43,41.92c-0.62,0.61-1.58,0.72-2.33,0.27
    l-28.56-17.09c-0.98-0.59-1.24-1.9-0.54-2.81l34.5-45.35l0,0c23.98-31.58,47.96-63.15,71.93-94.73c0.77-1.01,0.53-2.46-0.51-3.18
    l0,0c-0.9-0.61-2.1-0.49-2.86,0.29c-28.5,29.58-57,59.16-85.5,88.74c0,0,0,0-0.01,0l-2.46,2.57c-0.01,0.01-0.03,0.03-0.04,0.04l0,0
    L314.92,352.07c-0.68,0.7-1.78,0.79-2.55,0.2l-0.27-0.21c-0.83-0.63-1-1.82-0.38-2.66c32.43-44.35,64.87-88.69,97.3-133.04
    c-23.52-3.24-47.42,1.21-68.09,12.37c-0.14,0.07-0.28,0.14-0.41,0.21c-0.81,0.44-1.6,0.92-2.4,1.38c-0.8,0.46-1.61,0.91-2.39,1.39
    c-0.13,0.08-0.26,0.17-0.39,0.25c-31.75,19.55-52.92,54.62-52.92,94.64l0,366.35c0,61.35,49.73,111.08,111.08,111.08l0,0
    c61.35,0,111.08-49.73,111.08-111.08l0-174.31l150.96,87.15c53.13,30.67,121.07,12.47,151.74-40.66l0,0
    c30.67-53.13,12.47-121.07-40.66-151.74l-75.64-43.67l-36.69,44.69c-0.6,0.73-1.63,0.91-2.44,0.44l-30.61-17.67
    c-1.01-0.58-1.27-1.93-0.55-2.85l35.1-44.94l0,0c19.21-24.63,38.42-49.26,57.63-73.89C714.29,274.39,714.09,272.77,712.97,271.88z"/>
</svg>
